<svg class="marks" width="315" height="342" viewBox="0 0 315 342" version="1.1" xmlns="http://www.w3.org/2000/svg" xmlns:xlink="http://www.w3.org/1999/xlink"><rect width="315" height="342" style="fill: white;"></rect><defs><linearGradient id="gradient_0" x1="0" x2="0" y1="1" y2="0"><stop offset="0" stop-color="rgb(227, 233, 224)"></stop><stop offset="0.0553030303030303" stop-color="rgb(210, 227, 216)"></stop><stop offset="0.1106060606060606" stop-color="rgb(192, 220, 207)"></stop><stop offset="0.1659090909090909" stop-color="rgb(173, 213, 205)"></stop><stop offset="0.2212121212121212" stop-color="rgb(154, 206, 202)"></stop><stop offset="0.2765151515151515" stop-color="rgb(138, 199, 201)"></stop><stop offset="0.3318181818181818" stop-color="rgb(122, 191, 200)"></stop><stop offset="0.3871212121212121" stop-color="rgb(106, 183, 196)"></stop><stop offset="0.4424242424242424" stop-color="rgb(90, 175, 192)"></stop><stop offset="0.49772727272727274" stop-color="rgb(73, 167, 189)"></stop><stop offset="0.553030303030303" stop-color="rgb(57, 159, 185)"></stop><stop offset="0.6083333333333333" stop-color="rgb(53, 150, 179)"></stop><stop offset="0.6636363636363636" stop-color="rgb(50, 141, 173)"></stop><stop offset="0.7189393939393939" stop-color="rgb(49, 133, 167)"></stop><stop offset="0.7742424242424242" stop-color="rgb(47, 125, 160)"></stop><stop offset="0.8295454545454545" stop-color="rgb(43, 116, 155)"></stop><stop offset="0.8848484848484848" stop-color="rgb(39, 108, 149)"></stop><stop offset="0.9401515151515151" stop-color="rgb(38, 99, 143)"></stop><stop offset="0.9954545454545455" stop-color="rgb(37, 90, 137)"></stop><stop offset="1" stop-color="rgb(37, 89, 136)"></stop></linearGradient></defs><g transform="translate(123,44)"><g class="mark-group role-frame root"><g transform="translate(0,0)"><path class="background" d="M0,0h0v0h0Z" style="fill: none;"></path><g><g class="mark-group role-scope concat_0_group"><g transform="translate(0,0)"><path class="background" d="M0,0h80v260h-80Z" style="fill: none; stroke: #ddd; stroke-width: 0;"></path><g><g class="mark-rect role-mark concat_0_marks"><path d="M1,1h18v18h-18Z" style="fill: rgb(227, 233, 224);"></path><path d="M21,1h18v18h-18Z" style="fill: rgb(116, 188, 199);"></path><path d="M41,1h18v18h-18Z" style="fill: rgb(195, 221, 209);"></path><path d="M61,1h18v18h-18Z" style="fill: rgb(227, 233, 224);"></path><path d="M1,21h18v18h-18Z" style="fill: rgb(224, 232, 222);"></path><path d="M21,21h18v18h-18Z" style="fill: rgb(202, 224, 212);"></path><path d="M41,21h18v18h-18Z" style="fill: rgb(199, 223, 210);"></path><path d="M61,21h18v18h-18Z" style="fill: rgb(202, 224, 212);"></path><path d="M1,41h18v18h-18Z" style="fill: rgb(227, 233, 224);"></path><path d="M21,41h18v18h-18Z" style="fill: rgb(227, 233, 224);"></path><path d="M41,41h18v18h-18Z" style="fill: rgb(227, 233, 224);"></path><path d="M61,41h18v18h-18Z" style="fill: rgb(227, 233, 224);"></path><path d="M1,61h18v18h-18Z" style="fill: rgb(222, 231, 221);"></path><path d="M21,61h18v18h-18Z" style="fill: rgb(227, 233, 224);"></path><path d="M41,61h18v18h-18Z" style="fill: rgb(227, 233, 224);"></path><path d="M61,61h18v18h-18Z" style="fill: rgb(227, 233, 224);"></path><path d="M1,81h18v18h-18Z" style="fill: rgb(200, 223, 211);"></path><path d="M21,81h18v18h-18Z" style="fill: rgb(227, 233, 224);"></path><path d="M41,81h18v18h-18Z" style="fill: rgb(220, 231, 221);"></path><path d="M61,81h18v18h-18Z" style="fill: rgb(227, 233, 224);"></path><path d="M1,101h18v18h-18Z" style="fill: rgb(187, 218, 206);"></path><path d="M21,101h18v18h-18Z" style="fill: rgb(143, 201, 201);"></path><path d="M41,101h18v18h-18Z" style="fill: rgb(221, 231, 221);"></path><path d="M61,101h18v18h-18Z" style="fill: rgb(220, 230, 221);"></path><path d="M1,121h18v18h-18Z" style="fill: rgb(223, 231, 222);"></path><path d="M21,121h18v18h-18Z" style="fill: rgb(188, 219, 206);"></path><path d="M41,121h18v18h-18Z" style="fill: rgb(201, 223, 211);"></path><path d="M61,121h18v18h-18Z" style="fill: rgb(226, 233, 224);"></path><path d="M1,141h18v18h-18Z" style="fill: rgb(227, 233, 224);"></path><path d="M21,141h18v18h-18Z" style="fill: rgb(218, 230, 220);"></path><path d="M41,141h18v18h-18Z" style="fill: rgb(211, 227, 216);"></path><path d="M61,141h18v18h-18Z" style="fill: rgb(227, 233, 224);"></path><path d="M21,161h18v18h-18Z" style="fill: rgb(42, 113, 153);"></path><path d="M41,161h18v18h-18Z" style="fill: rgb(210, 227, 216);"></path><path d="M61,161h18v18h-18Z" style="fill: rgb(227, 233, 224);"></path><path d="M1,181h18v18h-18Z" style="fill: rgb(226, 233, 224);"></path><path d="M21,181h18v18h-18Z" style="fill: rgb(144, 201, 201);"></path><path d="M41,181h18v18h-18Z" style="fill: rgb(201, 223, 211);"></path><path d="M61,181h18v18h-18Z" style="fill: rgb(227, 233, 224);"></path><path d="M1,201h18v18h-18Z" style="fill: rgb(227, 233, 224);"></path><path d="M21,201h18v18h-18Z" style="fill: rgb(227, 233, 224);"></path><path d="M41,201h18v18h-18Z" style="fill: rgb(227, 233, 224);"></path><path d="M61,201h18v18h-18Z" style="fill: rgb(213, 228, 217);"></path><path d="M1,221h18v18h-18Z" style="fill: rgb(49, 134, 168);"></path><path d="M21,221h18v18h-18Z" style="fill: rgb(166, 210, 204);"></path><path d="M41,221h18v18h-18Z" style="fill: rgb(37, 89, 136);"></path><path d="M61,221h18v18h-18Z" style="fill: rgb(227, 233, 224);"></path><path d="M1,241h18v18h-18Z" style="fill: rgb(119, 190, 199);"></path><path d="M21,241h18v18h-18Z" style="fill: rgb(136, 198, 201);"></path><path d="M41,241h18v18h-18Z" style="fill: rgb(227, 233, 224);"></path><path d="M61,241h18v18h-18Z" style="fill: rgb(213, 228, 217);"></path></g><g class="mark-group role-title"><g transform="translate(40,280)"><path class="background" d="M0,0h0v0h0Z" style="pointer-events: none; fill: none;"></path><g><g class="mark-text role-title-text" style="pointer-events: none;"><text text-anchor="middle" transform="translate(0,10)" style="font-family: sans-serif; font-size: 13px; font-weight: bold; fill: #000; opacity: 1;">Particle counts</text></g></g><path class="foreground" d="" style="pointer-events: none; display: none; fill: none;"></path></g></g><g class="mark-group role-axis"><g transform="translate(0.5,0.5)"><path class="background" d="M0,0h0v0h0Z" style="pointer-events: none; fill: none;"></path><g><g class="mark-text role-axis-label" style="pointer-events: none;"><text text-anchor="start" transform="translate(9.5,-2) rotate(270) translate(0,3)" style="font-family: sans-serif; font-size: 10px; fill: #000; opacity: 1;">H2O2</text><text text-anchor="start" transform="translate(29.5,-2) rotate(270) translate(0,3)" style="font-family: sans-serif; font-size: 10px; fill: #000; opacity: 1;">KOH</text><text text-anchor="start" transform="translate(49.5,-2) rotate(270) translate(0,3)" style="font-family: sans-serif; font-size: 10px; fill: #000; opacity: 1;">SPT</text><text text-anchor="start" transform="translate(69.5,-2) rotate(270) translate(0,3)" style="font-family: sans-serif; font-size: 10px; fill: #000; opacity: 1;">pentane</text></g></g><path class="foreground" d="" style="pointer-events: none; display: none; fill: none;"></path></g></g><g class="mark-group role-axis"><g transform="translate(0.5,0.5)"><path class="background" d="M0,0h0v0h0Z" style="pointer-events: none; fill: none;"></path><g><g class="mark-text role-axis-label" style="pointer-events: none;"><text text-anchor="end" transform="translate(-2,12.5)" style="font-family: sans-serif; font-size: 10px; fill: #000; opacity: 1;">ABS</text><text text-anchor="end" transform="translate(-2,32.5)" style="font-family: sans-serif; font-size: 10px; fill: #000; opacity: 1;">Acrylate</text><text text-anchor="end" transform="translate(-2,52.5)" style="font-family: sans-serif; font-size: 10px; fill: #000; opacity: 1;">EVA</text><text text-anchor="end" transform="translate(-2,72.5)" style="font-family: sans-serif; font-size: 10px; fill: #000; opacity: 1;">Epoxy</text><text text-anchor="end" transform="translate(-2,92.5)" style="font-family: sans-serif; font-size: 10px; fill: #000; opacity: 1;">LDPE</text><text text-anchor="end" transform="translate(-2,112.5)" style="font-family: sans-serif; font-size: 10px; fill: #000; opacity: 1;">PA6</text><text text-anchor="end" transform="translate(-2,132.5)" style="font-family: sans-serif; font-size: 10px; fill: #000; opacity: 1;">PC</text><text text-anchor="end" transform="translate(-2,152.5)" style="font-family: sans-serif; font-size: 10px; fill: #000; opacity: 1;">PET</text><text text-anchor="end" transform="translate(-2,172.5)" style="font-family: sans-serif; font-size: 10px; fill: #000; opacity: 1;">PMMA</text><text text-anchor="end" transform="translate(-2,192.5)" style="font-family: sans-serif; font-size: 10px; fill: #000; opacity: 1;">PP</text><text text-anchor="end" transform="translate(-2,212.5)" style="font-family: sans-serif; font-size: 10px; fill: #000; opacity: 1;">PS</text><text text-anchor="end" transform="translate(-2,232.5)" style="font-family: sans-serif; font-size: 10px; fill: #000; opacity: 1;">PVC</text><text text-anchor="end" transform="translate(-2,252.5)" style="font-family: sans-serif; font-size: 10px; fill: #000; opacity: 1;">TPU</text></g></g><path class="foreground" d="" style="pointer-events: none; display: none; fill: none;"></path></g></g></g><path class="foreground" d="" style="display: none; fill: none;"></path></g></g><g class="mark-group role-scope concat_1_group"><g transform="translate(107,0)"><path class="background" d="M0,0h80v260h-80Z" style="fill: none; stroke: #ddd; stroke-width: 0;"></path><g><g class="mark-rect role-mark concat_1_marks"><path d="M1,1h18v18h-18Z" style="fill: rgb(127, 193, 200);"></path><path d="M21,1h18v18h-18Z" style="fill: rgb(184, 217, 206);"></path><path d="M41,1h18v18h-18Z" style="fill: rgb(210, 227, 216);"></path><path d="M61,1h18v18h-18Z" style="fill: rgb(200, 223, 211);"></path><path d="M1,21h18v18h-18Z" style="fill: rgb(221, 231, 221);"></path><path d="M21,21h18v18h-18Z" style="fill: rgb(227, 233, 224);"></path><path d="M41,21h18v18h-18Z" style="fill: rgb(216, 229, 219);"></path><path d="M61,21h18v18h-18Z" style="fill: rgb(227, 233, 224);"></path><path d="M1,41h18v18h-18Z" style="fill: rgb(210, 227, 216);"></path><path d="M21,41h18v18h-18Z" style="fill: rgb(227, 233, 224);"></path><path d="M41,41h18v18h-18Z" style="fill: rgb(227, 233, 224);"></path><path d="M61,41h18v18h-18Z" style="fill: rgb(227, 233, 224);"></path><path d="M1,61h18v18h-18Z" style="fill: rgb(222, 231, 221);"></path><path d="M21,61h18v18h-18Z" style="fill: rgb(207, 225, 214);"></path><path d="M41,61h18v18h-18Z" style="fill: rgb(215, 229, 218);"></path><path d="M61,61h18v18h-18Z" style="fill: rgb(220, 230, 220);"></path><path d="M1,81h18v18h-18Z" style="fill: rgb(227, 233, 224);"></path><path d="M21,81h18v18h-18Z" style="fill: rgb(227, 233, 224);"></path><path d="M41,81h18v18h-18Z" style="fill: rgb(227, 233, 224);"></path><path d="M61,81h18v18h-18Z" style="fill: rgb(227, 233, 224);"></path><path d="M1,101h18v18h-18Z" style="fill: rgb(222, 231, 222);"></path><path d="M21,101h18v18h-18Z" style="fill: rgb(222, 231, 221);"></path><path d="M41,101h18v18h-18Z" style="fill: rgb(209, 226, 215);"></path><path d="M61,101h18v18h-18Z" style="fill: rgb(220, 230, 221);"></path><path d="M1,121h18v18h-18Z" style="fill: rgb(125, 192, 200);"></path><path d="M21,121h18v18h-18Z" style="fill: rgb(227, 233, 224);"></path><path d="M41,121h18v18h-18Z" style="fill: rgb(53, 151, 180);"></path><path d="M61,121h18v18h-18Z" style="fill: rgb(196, 222, 209);"></path><path d="M1,141h18v18h-18Z" style="fill: rgb(227, 233, 224);"></path><path d="M21,141h18v18h-18Z" style="fill: rgb(207, 226, 215);"></path><path d="M41,141h18v18h-18Z" style="fill: rgb(227, 233, 224);"></path><path d="M61,141h18v18h-18Z" style="fill: rgb(227, 233, 224);"></path><path d="M21,161h18v18h-18Z" style="fill: rgb(147, 203, 202);"></path><path d="M41,161h18v18h-18Z" style="fill: rgb(206, 225, 214);"></path><path d="M61,161h18v18h-18Z" style="fill: rgb(207, 226, 214);"></path><path d="M1,181h18v18h-18Z" style="fill: rgb(186, 218, 206);"></path><path d="M21,181h18v18h-18Z" style="fill: rgb(153, 206, 202);"></path><path d="M41,181h18v18h-18Z" style="fill: rgb(199, 223, 210);"></path><path d="M61,181h18v18h-18Z" style="fill: rgb(200, 223, 211);"></path><path d="M1,201h18v18h-18Z" style="fill: rgb(227, 233, 224);"></path><path d="M21,201h18v18h-18Z" style="fill: rgb(217, 229, 219);"></path><path d="M41,201h18v18h-18Z" style="fill: rgb(227, 233, 224);"></path><path d="M61,201h18v18h-18Z" style="fill: rgb(227, 233, 224);"></path><path d="M1,221h18v18h-18Z" style="fill: rgb(55, 156, 183);"></path><path d="M21,221h18v18h-18Z" style="fill: rgb(227, 233, 224);"></path><path d="M41,221h18v18h-18Z" style="fill: rgb(227, 233, 224);"></path><path d="M61,221h18v18h-18Z" style="fill: rgb(215, 229, 218);"></path><path d="M1,241h18v18h-18Z" style="fill: rgb(42, 113, 153);"></path><path d="M21,241h18v18h-18Z" style="fill: rgb(181, 216, 206);"></path><path d="M41,241h18v18h-18Z" style="fill: rgb(204, 224, 213);"></path><path d="M61,241h18v18h-18Z" style="fill: rgb(206, 225, 214);"></path></g><g class="mark-group role-title"><g transform="translate(40,280)"><path class="background" d="M0,0h0v0h0Z" style="pointer-events: none; fill: none;"></path><g><g class="mark-text role-title-text" style="pointer-events: none;"><text text-anchor="middle" transform="translate(0,10)" style="font-family: sans-serif; font-size: 13px; font-weight: bold; fill: #000; opacity: 1;">Particle area</text></g></g><path class="foreground" d="" style="pointer-events: none; display: none; fill: none;"></path></g></g><g class="mark-group role-axis"><g transform="translate(0.5,0.5)"><path class="background" d="M0,0h0v0h0Z" style="pointer-events: none; fill: none;"></path><g><g class="mark-text role-axis-label" style="pointer-events: none;"><text text-anchor="start" transform="translate(9.5,-2) rotate(270) translate(0,3)" style="font-family: sans-serif; font-size: 10px; fill: #000; opacity: 1;">H2O2</text><text text-anchor="start" transform="translate(29.5,-2) rotate(270) translate(0,3)" style="font-family: sans-serif; font-size: 10px; fill: #000; opacity: 1;">KOH</text><text text-anchor="start" transform="translate(49.5,-2) rotate(270) translate(0,3)" style="font-family: sans-serif; font-size: 10px; fill: #000; opacity: 1;">SPT</text><text text-anchor="start" transform="translate(69.5,-2) rotate(270) translate(0,3)" style="font-family: sans-serif; font-size: 10px; fill: #000; opacity: 1;">pentane</text></g></g><path class="foreground" d="" style="pointer-events: none; display: none; fill: none;"></path></g></g><g class="mark-group role-axis"><g transform="translate(80.5,0.5)"><path class="background" d="M0,0h0v0h0Z" style="pointer-events: none; fill: none;"></path><g></g><path class="foreground" d="" style="pointer-events: none; display: none; fill: none;"></path></g></g></g><path class="foreground" d="" style="display: none; fill: none;"></path></g></g><g class="mark-group role-legend"><g transform="translate(-118,0)"><path class="background" d="M0,0h61v281h-61Z" style="pointer-events: none; fill: none;"></path><g><g class="mark-group role-legend-entry"><g transform="translate(0,31)"><path class="background" d="M0,0h0v0h0Z" style="pointer-events: none; fill: none;"></path><g><g class="mark-rect role-legend-gradient" style="pointer-events: none;"><path d="M0,0h16v250h-16Z" style="fill: url(#gradient_0); stroke: #ddd; stroke-width: 0; opacity: 1;"></path></g><g class="mark-text role-legend-label" style="pointer-events: none;"><text text-anchor="start" transform="translate(26,248)" style="font-family: sans-serif; font-size: 10px; fill: #000; opacity: 1;">0</text><text text-anchor="start" transform="translate(26,183.87121212121212)" style="font-family: sans-serif; font-size: 10px; fill: #000; opacity: 1;">50</text><text text-anchor="start" transform="translate(26,114.74242424242425)" style="font-family: sans-serif; font-size: 10px; fill: #000; opacity: 1;">100</text><text text-anchor="start" transform="translate(26,45.61363636363638)" style="font-family: sans-serif; font-size: 10px; fill: #000; opacity: 1;">150</text></g></g><path class="foreground" d="" style="pointer-events: none; display: none; fill: none;"></path></g></g><g class="mark-text role-legend-title" style="pointer-events: none;"><text text-anchor="start" transform="translate(0,9)" style="font-family: sans-serif; font-size: 11px; font-weight: bold; fill: #000; opacity: 1;">Change [%]</text></g></g><path class="foreground" d="" style="pointer-events: none; display: none; fill: none;"></path></g></g></g><path class="foreground" d="" style="display: none; fill: none;"></path></g></g></g></svg>